<?xml version="1.0" encoding="UTF-8" ?>
<!DOCTYPE svg PUBLIC "-//W3C//DTD SVG 1.1//EN" "http://www.w3.org/Graphics/SVG/1.1/DTD/svg11.dtd">
<svg width="820pt" height="279pt" viewBox="0 0 820 279" version="1.1" xmlns="http://www.w3.org/2000/svg">
<g id="#01b8a2ff">
</g>
<g id="#ffffffff">
<path fill="#ffffff" opacity="1.00" d=" M 40.86 27.75 C 50.40 9.54 71.80 -0.98 92.04 0.97 C 100.53 1.68 108.74 5.25 115.09 10.91 C 118.46 13.86 120.87 17.69 123.17 21.48 C 128.71 22.19 134.37 23.01 139.37 25.64 C 147.53 29.56 153.79 37.15 156.23 45.85 C 158.27 53.38 157.14 61.99 152.16 68.15 C 147.26 74.69 139.82 78.58 132.28 81.27 C 132.32 91.03 134.60 100.61 137.96 109.73 C 131.30 109.77 124.64 109.48 117.99 109.76 C 106.40 110.48 94.77 112.43 83.98 116.83 C 94.27 115.44 104.60 113.69 115.03 114.13 C 120.98 114.36 127.08 114.78 132.59 117.24 C 123.08 117.86 113.47 117.65 104.10 119.71 C 89.39 121.84 75.21 126.54 61.47 132.08 C 60.67 122.68 59.37 113.33 57.71 104.05 C 56.81 98.73 54.70 93.75 53.24 88.58 C 55.46 90.39 57.65 92.35 59.02 94.92 C 63.10 102.27 65.10 110.49 67.54 118.47 C 76.36 113.02 85.87 108.42 96.11 106.45 C 107.60 104.45 119.39 103.89 130.95 105.64 C 129.38 98.12 127.15 90.73 126.43 83.05 C 119.79 83.61 113.18 84.82 106.50 84.36 C 111.86 82.44 117.50 81.23 122.63 78.69 C 128.71 75.84 134.06 71.40 137.85 65.84 C 141.12 61.06 140.95 55.04 141.71 49.53 C 142.99 52.78 144.25 56.22 143.75 59.78 C 143.18 65.05 140.05 69.49 137.78 74.13 C 142.86 71.22 147.15 66.81 149.28 61.29 C 152.05 54.87 151.75 47.06 147.84 41.17 C 144.95 36.59 140.19 33.56 135.19 31.70 C 129.39 29.55 123.16 28.29 116.95 28.66 C 111.52 29.00 106.54 31.41 101.76 33.81 C 95.83 36.81 89.79 39.79 83.25 41.22 C 76.08 42.72 68.61 42.68 61.44 41.17 C 67.36 39.72 73.53 39.36 79.31 37.32 C 91.08 33.44 101.11 25.53 113.20 22.48 C 110.64 18.61 107.76 14.81 103.81 12.26 C 96.43 7.27 86.92 6.22 78.38 8.30 C 68.52 10.73 59.34 16.00 52.42 23.44 C 47.50 28.67 43.69 35.59 44.23 42.97 C 44.36 47.68 47.41 51.50 49.76 55.34 C 46.89 54.06 43.72 52.86 41.87 50.15 C 39.03 46.45 38.30 41.43 35.00 38.06 C 30.43 36.42 24.81 36.80 20.89 39.89 C 12.55 45.96 8.48 56.89 9.85 66.99 C 10.67 72.44 13.75 77.66 18.50 80.55 C 23.70 83.75 30.00 84.92 36.04 84.28 C 45.02 83.45 53.33 79.53 62.21 78.22 C 65.89 77.65 69.62 77.94 73.30 78.29 C 69.19 79.62 64.98 80.58 60.85 81.84 C 54.74 83.70 48.80 86.09 42.64 87.82 C 35.54 89.84 27.91 90.06 20.70 88.47 C 12.98 86.72 6.16 81.16 3.40 73.67 C -0.67 62.55 2.20 49.03 10.87 40.86 C 14.95 36.94 20.34 34.39 25.98 33.88 C 29.71 33.43 33.53 33.94 37.21 33.13 C 38.80 31.62 39.77 29.62 40.86 27.75 Z" />
<path fill="#ffffff" opacity="1.00" d=" M 494.43 98.58 C 498.83 97.37 503.81 98.75 506.96 102.06 C 510.92 106.06 511.79 112.89 508.53 117.57 C 505.72 121.95 500.16 124.36 495.05 123.17 C 489.45 122.10 485.24 116.65 485.24 111.01 C 485.11 105.46 489.02 99.99 494.43 98.58 Z" />
<path fill="#ffffff" opacity="1.00" d=" M 172.16 100.73 C 185.44 100.64 198.72 100.71 212.00 100.70 C 223.06 100.69 234.41 101.83 244.57 106.47 C 252.92 110.28 260.06 117.23 262.97 126.06 C 266.70 137.17 266.09 150.00 260.25 160.29 C 257.67 164.83 254.01 168.68 249.96 171.95 C 244.35 176.41 237.46 178.75 230.77 181.04 C 233.84 184.07 236.66 187.33 239.17 190.84 C 252.17 208.55 265.35 226.14 278.24 243.94 C 272.80 243.98 267.36 244.18 261.93 244.01 C 259.55 243.88 256.89 243.71 255.09 241.94 C 252.66 239.63 250.92 236.72 248.94 234.03 C 238.61 219.71 228.13 205.51 217.83 191.17 C 215.70 188.46 213.55 184.96 209.81 184.50 C 203.83 183.85 197.80 184.41 191.80 184.22 C 191.65 204.13 191.70 224.04 191.78 243.95 C 185.24 244.05 178.70 244.05 172.16 243.97 C 172.23 196.22 172.22 148.47 172.16 100.73 M 191.77 116.02 C 191.69 134.01 191.69 152.00 191.77 169.98 C 199.87 169.92 207.98 170.31 216.07 169.95 C 224.58 169.50 233.47 166.79 239.49 160.49 C 245.76 153.90 247.55 144.05 245.75 135.33 C 244.65 129.99 241.75 124.90 237.14 121.86 C 230.68 117.51 222.67 116.26 215.03 116.05 C 207.28 115.94 199.52 116.06 191.77 116.02 Z" />
<path fill="#ffffff" opacity="1.00" d=" M 318.93 141.93 C 331.14 139.82 344.53 141.80 354.58 149.39 C 364.48 156.82 369.71 169.15 370.53 181.27 C 370.66 184.79 371.23 188.54 369.86 191.88 C 368.19 193.80 365.28 193.21 363.02 193.47 C 341.66 193.34 320.30 193.64 298.95 193.37 C 298.85 204.60 301.76 216.77 310.47 224.49 C 318.95 231.87 331.29 232.71 341.79 229.95 C 347.00 228.68 351.69 226.01 356.33 223.40 C 358.24 222.54 360.51 220.96 362.62 222.15 C 365.37 224.18 367.15 227.19 369.20 229.87 C 361.20 238.67 349.60 243.26 338.01 244.80 C 327.21 246.23 315.76 245.16 306.02 239.97 C 297.64 235.70 290.95 228.41 287.01 219.89 C 282.19 210.01 280.81 198.81 281.21 187.92 C 281.67 176.19 285.87 164.50 293.64 155.63 C 300.21 148.39 309.29 143.52 318.93 141.93 M 309.16 161.15 C 303.43 166.59 300.48 174.30 299.45 182.01 C 317.84 182.22 336.23 182.13 354.62 182.11 C 354.34 177.14 353.77 172.06 351.44 167.58 C 347.82 159.80 339.56 154.62 331.05 154.28 C 323.30 153.88 314.94 155.68 309.16 161.15 Z" />
<path fill="#ffffff" opacity="1.00" d=" M 404.65 150.67 C 416.24 141.37 432.24 139.45 446.46 142.43 C 454.59 144.14 461.75 148.71 467.84 154.21 C 465.57 157.15 463.69 160.54 460.64 162.77 C 457.80 163.38 455.37 161.20 452.98 160.01 C 444.27 154.39 432.85 153.58 423.26 157.29 C 415.96 160.14 410.62 166.69 408.10 173.98 C 404.97 183.13 404.37 193.04 405.62 202.59 C 406.88 211.24 410.16 220.22 417.19 225.82 C 424.69 231.87 435.22 232.76 444.29 230.34 C 449.11 229.06 453.01 225.84 457.10 223.15 C 458.66 222.18 460.79 220.91 462.53 222.28 C 465.20 224.32 466.99 227.25 469.03 229.88 C 463.36 236.05 456.17 240.86 448.06 243.10 C 436.28 246.36 423.10 246.55 411.95 241.04 C 403.03 236.75 396.04 228.98 392.03 219.99 C 386.94 208.51 386.00 195.59 387.46 183.23 C 389.24 170.89 394.58 158.46 404.65 150.67 Z" />
<path fill="#ffffff" opacity="1.00" d=" M 568.42 145.43 C 574.92 141.73 582.58 140.65 589.95 141.07 C 597.03 141.47 604.08 143.89 609.52 148.50 C 618.50 155.97 622.76 167.60 624.44 178.85 C 626.13 191.65 625.89 205.09 621.10 217.24 C 617.49 226.65 610.99 235.20 602.08 240.14 C 592.95 245.47 581.76 246.53 571.55 244.31 C 564.77 242.80 559.13 238.50 554.02 234.01 C 553.97 248.78 554.02 263.54 554.00 278.31 C 548.00 278.39 542.00 278.39 536.00 278.31 C 536.00 233.13 536.00 187.94 536.00 142.76 C 540.47 142.87 545.16 142.02 549.46 143.50 C 549.71 143.75 550.22 144.26 550.47 144.52 C 552.42 148.70 552.37 153.48 553.18 157.96 C 557.70 153.16 562.58 148.58 568.42 145.43 M 576.40 155.64 C 568.00 156.74 560.83 162.11 555.57 168.49 C 553.68 170.51 553.99 173.43 553.90 175.97 C 554.08 189.67 553.86 203.37 553.98 217.07 C 553.77 220.54 556.56 222.99 558.90 225.11 C 565.90 231.27 576.02 232.58 584.92 230.83 C 592.69 229.28 599.12 223.51 602.46 216.45 C 606.20 208.54 607.13 199.62 607.00 190.96 C 606.81 183.76 606.04 176.42 603.27 169.71 C 601.27 164.83 597.83 160.37 593.09 157.91 C 587.98 155.28 582.01 154.87 576.40 155.64 Z" />
<path fill="#ffffff" opacity="1.00" d=" M 654.74 155.77 C 662.82 146.68 674.82 141.53 686.91 141.21 C 699.58 140.36 712.96 144.85 721.38 154.61 C 729.43 163.99 732.49 176.81 731.77 188.95 C 731.58 190.40 731.39 192.39 729.71 192.86 C 727.53 193.50 725.24 193.43 723.01 193.48 C 702.00 193.33 681.00 193.62 659.99 193.39 C 660.27 202.06 661.63 211.07 666.50 218.45 C 670.28 224.53 676.55 228.87 683.51 230.46 C 693.69 232.75 704.63 230.81 713.61 225.57 C 716.57 224.13 719.43 221.69 722.87 221.79 C 726.33 223.37 728.10 227.06 730.39 229.91 C 723.21 237.60 713.34 242.32 703.06 244.15 C 692.24 246.26 680.70 245.83 670.47 241.48 C 660.62 237.47 652.65 229.41 648.16 219.83 C 643.57 210.25 642.08 199.46 642.34 188.93 C 642.66 176.93 646.78 164.85 654.74 155.77 M 670.28 161.27 C 664.54 166.66 661.67 174.35 660.60 182.01 C 679.07 182.19 697.54 182.20 716.00 182.05 C 715.57 177.06 714.97 171.94 712.57 167.45 C 708.86 159.71 700.58 154.54 692.05 154.27 C 684.30 153.87 675.99 155.73 670.28 161.27 Z" />
<path fill="#ffffff" opacity="1.00" d=" M 758.16 150.16 C 766.01 143.26 776.80 140.64 787.07 141.16 C 798.00 141.26 808.69 145.56 816.79 152.86 C 814.97 155.73 813.53 159.03 810.78 161.16 C 807.75 162.17 804.93 159.88 802.26 158.78 C 795.01 154.76 786.30 153.39 778.22 155.31 C 773.32 156.56 768.58 159.76 766.73 164.63 C 765.42 168.23 765.54 172.77 768.33 175.67 C 771.87 179.54 776.90 181.55 781.77 183.20 C 789.18 185.61 796.69 187.82 803.74 191.19 C 808.27 193.38 812.51 196.51 815.15 200.87 C 817.80 205.05 818.63 210.14 818.32 215.02 C 817.90 223.27 814.31 231.54 807.84 236.82 C 801.13 242.24 792.55 245.02 784.00 245.42 C 776.15 245.80 768.08 245.14 760.77 242.09 C 755.50 240.00 750.81 236.78 746.17 233.59 C 747.93 230.63 749.44 227.41 751.92 224.96 C 753.38 223.51 755.73 223.69 757.46 224.55 C 761.02 226.19 764.14 228.65 767.74 230.21 C 773.54 232.90 780.18 233.24 786.43 232.30 C 792.25 231.38 798.06 228.02 800.44 222.43 C 802.12 218.33 802.46 213.10 799.58 209.45 C 796.29 205.33 791.27 203.17 786.42 201.50 C 778.76 198.96 770.92 196.85 763.65 193.33 C 757.38 190.28 751.95 184.94 749.96 178.14 C 747.23 168.27 750.41 156.93 758.16 150.16 Z" />
<path fill="#ffffff" opacity="1.00" d=" M 57.01 142.72 C 63.00 142.62 69.00 142.62 75.00 142.72 C 75.02 163.81 74.99 184.91 74.95 206.01 C 74.94 212.80 75.82 220.20 80.55 225.45 C 84.57 230.13 91.10 231.46 97.00 231.35 C 104.76 231.35 112.04 227.75 117.91 222.89 C 119.84 221.24 121.89 219.58 123.19 217.36 C 124.10 213.31 123.50 209.11 123.61 205.00 C 123.59 184.24 123.47 163.48 123.65 142.72 C 129.65 142.60 135.64 142.59 141.64 142.82 C 141.49 176.51 141.47 210.21 141.65 243.90 C 137.51 243.97 133.31 244.40 129.19 243.68 C 127.96 243.52 126.94 242.64 126.59 241.46 C 125.27 237.72 125.09 233.71 124.54 229.81 C 117.95 236.04 110.61 242.07 101.61 244.29 C 94.04 246.01 85.92 246.15 78.51 243.66 C 69.89 240.80 62.91 233.68 59.98 225.12 C 57.61 218.70 57.06 211.80 57.06 205.00 C 57.03 184.24 56.99 163.48 57.01 142.72 Z" />
<path fill="#ffffff" opacity="1.00" d=" M 489.01 142.70 C 494.98 142.61 500.97 142.61 506.95 142.71 C 506.95 176.47 506.94 210.23 506.96 243.99 C 500.97 244.01 494.99 244.01 489.00 244.01 C 489.00 210.24 488.99 176.47 489.01 142.70 Z" />
</g>
</svg>
