<?xml version="1.0" encoding="UTF-8" standalone="no"?>
<!-- Generator: Adobe Illustrator 19.0.0, SVG Export Plug-In . SVG Version: 6.00 Build 0)  -->

<svg
   version="1.1"
   id="Layer_1"
   x="0px"
   y="0px"
   viewBox="0 0 512 512"
   style="enable-background:new 0 0 512 512;"
   xml:space="preserve"
   sodipodi:docname="clock.svg"
   inkscape:version="1.1.1 (3bf5ae0d25, 2021-09-20)"
   xmlns:inkscape="http://www.inkscape.org/namespaces/inkscape"
   xmlns:sodipodi="http://sodipodi.sourceforge.net/DTD/sodipodi-0.dtd"
   xmlns="http://www.w3.org/2000/svg"
   xmlns:svg="http://www.w3.org/2000/svg"><defs
   id="defs57" /><sodipodi:namedview
   id="namedview55"
   pagecolor="#ffffff"
   bordercolor="#666666"
   borderopacity="1.0"
   inkscape:pageshadow="2"
   inkscape:pageopacity="0.0"
   inkscape:pagecheckerboard="0"
   showgrid="false"
   inkscape:zoom="0.42089845"
   inkscape:cx="-671.18327"
   inkscape:cy="272.03711"
   inkscape:window-width="1920"
   inkscape:window-height="1051"
   inkscape:window-x="-9"
   inkscape:window-y="-9"
   inkscape:window-maximized="1"
   inkscape:current-layer="Layer_1" />
<circle
   style="fill:#FF9E24;"
   cx="256"
   cy="256"
   r="256"
   id="circle2" />
<circle
   style="fill:#ffffff;stroke-width:1.07245"
   cx="256"
   cy="256"
   id="circle4"
   r="222.5" /><path
   style="fill:#7a7674;stroke-width:1.08118"
   d="m 77.846088,268.79894 h -20.16676 c -7.42555,0 -13.44488,-5.7312 -13.44488,-12.79894 0,-7.06774 6.01933,-12.79894 13.44488,-12.79894 h 20.16676 c 7.42555,0 13.44488,5.7312 13.44488,12.79894 0,7.06774 -6.01933,12.79894 -13.44488,12.79894 z"
   id="path14-0" /><path
   style="fill:#7a7674;stroke-width:1.08118"
   d="m 256,87.28049 c -7.42555,0 -13.44488,-5.73119 -13.44488,-12.79893 V 55.28473 c 0,-7.06774 6.01933,-12.79894 13.44488,-12.79894 7.42554,0 13.44488,5.7312 13.44488,12.79894 v 19.19788 c 0,7.06669 -6.01934,12.79788 -13.44488,12.79788 z"
   id="path16-8" /><path
   style="fill:#7a7674;stroke-width:1.08118"
   d="m 454.19688,268.79894 h -20.16677 c -7.42554,0 -13.44487,-5.7312 -13.44487,-12.79894 0,-7.06774 6.01933,-12.79894 13.44487,-12.79894 h 20.16677 c 7.42554,0 13.44488,5.7312 13.44488,12.79894 0,7.06774 -6.01934,12.79894 -13.44488,12.79894 z"
   id="path18-2" /><path
   style="fill:#7a7674;stroke-width:1.08118"
   d="m 256,469.07101 c -7.42555,0 -13.44488,-5.73119 -13.44488,-12.79893 V 437.0742 c 0,-7.06774 6.01933,-12.79894 13.44488,-12.79894 7.42554,0 13.44488,5.7312 13.44488,12.79894 v 19.19788 c 0,7.06774 -6.01934,12.79893 -13.44488,12.79893 z"
   id="path20-0" />
<path
   style="fill:#181818;"
   d="M342.649,196.805c7.582-7.582,7.582-19.872,0-27.453c-7.582-7.582-19.872-7.582-27.453,0  l-73.605,73.605l27.453,27.453L342.649,196.805z"
   id="path6" />
<path
   style="fill:#EE3840;"
   d="M244.229,250.613L135.035,359.807c-4.738,4.738-4.738,12.42,0,17.159  c2.37,2.368,5.474,3.554,8.579,3.554c3.105,0,6.211-1.185,8.579-3.554l109.194-109.194L244.229,250.613z"
   id="path8" />
<path
   style="fill:#181818;"
   d="M171.066,143.614c-7.582-7.582-19.872-7.582-27.453,0c-7.582,7.582-7.582,19.872,0,27.453  l99.343,99.343l27.453-27.453L171.066,143.614z"
   id="path10" />
<path
   style="fill:#524E4D;"
   d="M256,286.332c-16.725,0-30.332-13.607-30.332-30.332s13.607-30.332,30.332-30.332  s30.332,13.607,30.332,30.332S272.725,286.332,256,286.332z"
   id="path12" />

<g
   id="g24">
</g>
<g
   id="g26">
</g>
<g
   id="g28">
</g>
<g
   id="g30">
</g>
<g
   id="g32">
</g>
<g
   id="g34">
</g>
<g
   id="g36">
</g>
<g
   id="g38">
</g>
<g
   id="g40">
</g>
<g
   id="g42">
</g>
<g
   id="g44">
</g>
<g
   id="g46">
</g>
<g
   id="g48">
</g>
<g
   id="g50">
</g>
<g
   id="g52">
</g>
</svg>
