<?xml version="1.0" encoding="UTF-8" standalone="no"?> <svg xmlns="http://www.w3.org/2000/svg" xmlns:xlink="http://www.w3.org/1999/xlink" viewBox="0 0 64 64"><defs><style>.cls-1{fill:url(#linear-gradient);}</style><linearGradient id="linear-gradient" x1="10.01" y1="32" x2="53.99" y2="32" gradientUnits="userSpaceOnUse"><stop offset="0" stop-color="#ffae46"/><stop offset="0.19" stop-color="#ff9755"/><stop offset="0.74" stop-color="#ff5a7d"/><stop offset="1" stop-color="#ff428d"/></linearGradient></defs><g id="Layer_10" data-name="Layer 10"><path class="cls-1" d="M53.81,23.55A2,2,0,0,0,52,22.38H36.45L43.09,4.7a2,2,0,0,0-.22-1.84A2,2,0,0,0,41.22,2H25.1a2,2,0,0,0-1.82,1.19L10.18,32.74A2,2,0,0,0,12,35.55h13.5L19.14,59.49a2,2,0,0,0,1,2.28,2.06,2.06,0,0,0,.93.23,2,2,0,0,0,1.52-.69L53.5,25.69A2,2,0,0,0,53.81,23.55ZM25.23,52.17,30,34.06a.09.09,0,0,1,0-.05l0-.21a1.36,1.36,0,0,0,0-.2.43.43,0,0,1,0-.05.51.51,0,0,0,0-.13,1.64,1.64,0,0,0,0-.22c0-.06,0-.12,0-.18L30,32.83a1.42,1.42,0,0,0-.08-.18l-.09-.16-.11-.16-.13-.15a1.59,1.59,0,0,1-.13-.13l-.16-.12-.16-.1-.17-.1-.2-.07-.12-.05h-.05l-.21,0-.2,0H15.08L26.41,6H38.33L31.69,23.68l0,.13L31.6,24c0,.08,0,.15,0,.22s0,.09,0,.14v0a1.64,1.64,0,0,0,0,.22.86.86,0,0,0,0,.17,1.05,1.05,0,0,0,.05.19,1.34,1.34,0,0,0,.07.18c0,.06.06.11.08.16a1.62,1.62,0,0,1,.1.18l.13.15.12.14.15.12a1,1,0,0,0,.16.12l.14.08.21.11h0l.14,0,.21.05a1.66,1.66,0,0,0,.22,0H47.61Z"/></g></svg>