<svg width="31" height="28" viewBox="0 0 31 28" fill="none" xmlns="http://www.w3.org/2000/svg">
<path d="M22.0625 0.375C19.525 0.375 17.0896 1.55625 15.5 3.42292C13.9104 1.55625 11.475 0.375 8.93752 0.375C4.44585 0.375 0.916687 3.90417 0.916687 8.39583C0.916687 13.9083 5.87502 18.4 13.3854 25.225L15.5 27.1354L17.6146 25.2104C25.125 18.4 30.0834 13.9083 30.0834 8.39583C30.0834 3.90417 26.5542 0.375 22.0625 0.375ZM15.6459 23.0521L15.5 23.1979L15.3542 23.0521C8.41252 16.7667 3.83335 12.6104 3.83335 8.39583C3.83335 5.47917 6.02085 3.29167 8.93752 3.29167C11.1834 3.29167 13.3709 4.73542 14.1438 6.73333H16.8709C17.6292 4.73542 19.8167 3.29167 22.0625 3.29167C24.9792 3.29167 27.1667 5.47917 27.1667 8.39583C27.1667 12.6104 22.5875 16.7667 15.6459 23.0521Z" fill="#18B48C"/>
</svg>
