<svg xmlns:dc="http://purl.org/dc/elements/1.1/" xmlns:cc="http://creativecommons.org/ns#" xmlns:rdf="http://www.w3.org/1999/02/22-rdf-syntax-ns#" xmlns:svg="http://www.w3.org/2000/svg" xmlns="http://www.w3.org/2000/svg" xmlns:sodipodi="http://sodipodi.sourceforge.net/DTD/sodipodi-0.dtd" xmlns:inkscape="http://www.inkscape.org/namespaces/inkscape" width="64" height="64" viewBox="0 0 16.933333 16.933334" version="1.1" id="svg4515" inkscape:version="1.0 (4035a4fb49, 2020-05-01)" sodipodi:docname="cake, food, snack.svg">
<defs id="defs4509">
<inkscape:path-effect hide_knots="false" only_selected="false" apply_with_radius="true" apply_no_radius="true" use_knot_distance="true" flexible="false" chamfer_steps="1" radius="0" mode="F" method="auto" unit="px" satellites_param="F,0,0,1,0,0,0,1 @ F,0,0,1,0,0,0,1 @ F,0,1,1,0,1.3229184,0,1 @ F,0,0,1,0,1.3229184,0,1 @ F,0,0,1,0,0,0,1 @ F,0,0,1,0,0,0,1" lpeversion="1" is_visible="true" id="path-effect1103" effect="fillet_chamfer"></inkscape:path-effect>
<inkscape:path-effect effect="fillet_chamfer" id="path-effect1283" is_visible="true" lpeversion="1" satellites_param="F,0,0,1,0,0,0,1 @ F,0,0,1,0,0,0,1 @ F,0,0,1,0,1.940273,0,1 @ F,0,0,1,0,1.9402818,0,1 @ F,0,0,1,0,0,0,1 @ F,0,0,1,0,0,0,1" unit="px" method="auto" mode="F" radius="0" chamfer_steps="1" flexible="false" use_knot_distance="true" apply_no_radius="true" apply_with_radius="true" only_selected="false" hide_knots="false"></inkscape:path-effect>
</defs>
<sodipodi:namedview id="base" pagecolor="#ffffff" bordercolor="#666666" borderopacity="1.0" inkscape:pageopacity="0.0" inkscape:pageshadow="2" inkscape:zoom="4.661423" inkscape:cx="97.680962" inkscape:cy="44.762315" inkscape:document-units="px" inkscape:current-layer="layer1" inkscape:document-rotation="0" showgrid="false" units="px" inkscape:window-width="1366" inkscape:window-height="706" inkscape:window-x="-8" inkscape:window-y="-8" inkscape:window-maximized="1"></sodipodi:namedview>
<metadata id="metadata4512">
<rdf:rdf>
<cc:work rdf:about="">
<dc:format>image/svg+xml</dc:format>
<dc:type rdf:resource="http://purl.org/dc/dcmitype/StillImage"></dc:type>
<dc:title></dc:title>
</cc:work>
</rdf:rdf>
</metadata>
<g inkscape:label="Layer 1" inkscape:groupmode="layer" id="layer1">
<g style="stroke-width:1.00002" transform="matrix(0.99998485,0,0,0.99998485,-125.84575,0.27745618)" id="g1398">
<g style="stroke-width:1.00002" transform="translate(0,1.1464826)" id="g1373">
<path id="path865" d="m 126.37695,6.5253906 a 0.52921795,0.52921795 0 0 0 -0.52929,0.5292969 v 6.8808595 a 0.52921795,0.52921795 0 0 0 0.52929,0.527344 h 15.875 a 0.52921795,0.52921795 0 0 0 0.5293,-0.527344 V 7.0546875 a 0.52921795,0.52921795 0 0 0 -0.5293,-0.5292969 z m 0.5293,1.0585938 h 14.81641 V 13.40625 h -14.81641 z" style="color: rgb(0, 0, 0); font: medium sans-serif; font-feature-settings: normal; font-variation-settings: normal; text-indent: 0px; text-align: start; text-decoration: none solid rgb(0, 0, 0); letter-spacing: normal; word-spacing: normal; text-transform: none; writing-mode: lr-tb; direction: ltr; text-orientation: mixed; dominant-baseline: auto; baseline-shift: baseline; text-anchor: start; white-space: normal; shape-margin: 0px; inline-size: 0px; clip-rule: nonzero; display: inline; overflow: visible; visibility: visible; opacity: 1; isolation: auto; mix-blend-mode: normal; color-interpolation: srgb; color-interpolation-filters: linearrgb; vector-effect: none; fill: rgb(255, 158, 36); fill-opacity: 1; fill-rule: evenodd; stroke: none; stroke-width: 1.05835; stroke-linecap: round; stroke-linejoin: round; stroke-miterlimit: 4; stroke-dasharray: none; stroke-dashoffset: 0; stroke-opacity: 1; color-rendering: auto; image-rendering: auto; shape-rendering: auto; text-rendering: auto; stop-color: rgb(0, 0, 0); stop-opacity: 1;"></path>
<path id="path869" d="m 137.50391,1.9394531 a 0.52921795,0.52921795 0 0 0 -0.2168,0.041016 l -2.87109,1.1855468 a 0.52916503,0.52916503 0 0 0 -0.28711,0.6894532 0.52916503,0.52916503 0 0 0 0.6914,0.2890624 l 2.68555,-1.109375 c 2.2198,0.3572895 4.06495,1.9052865 4.21875,4.0585938 a 0.52916503,0.52916503 0 0 0 0.56445,0.4902344 0.52916503,0.52916503 0 0 0 0.49024,-0.5664063 c -0.19654,-2.7516636 -2.54284,-4.6905516 -5.21485,-5.0722656 a 0.52921795,0.52921795 0 0 0 -0.0605,-0.00586 z m -5.62696,2.3222657 a 0.52916503,0.52916503 0 0 0 -0.21484,0.039062 l -5.48633,2.265625 a 0.52916503,0.52916503 0 0 0 -0.28711,0.6914063 0.52916503,0.52916503 0 0 0 0.68945,0.2871094 l 5.48829,-2.265625 a 0.52916503,0.52916503 0 0 0 0.28711,-0.6914063 0.52916503,0.52916503 0 0 0 -0.47657,-0.3261714 z" style="color: rgb(0, 0, 0); font: medium sans-serif; font-feature-settings: normal; font-variation-settings: normal; text-indent: 0px; text-align: start; text-decoration: none solid rgb(0, 0, 0); letter-spacing: normal; word-spacing: normal; text-transform: none; writing-mode: lr-tb; direction: ltr; text-orientation: mixed; dominant-baseline: auto; baseline-shift: baseline; text-anchor: start; white-space: normal; shape-margin: 0px; inline-size: 0px; clip-rule: nonzero; display: inline; overflow: visible; visibility: visible; opacity: 1; isolation: auto; mix-blend-mode: normal; color-interpolation: srgb; color-interpolation-filters: linearrgb; vector-effect: none; fill: rgb(255, 158, 36); fill-opacity: 1; fill-rule: evenodd; stroke: none; stroke-width: 1.05835; stroke-linecap: round; stroke-linejoin: round; stroke-miterlimit: 4; stroke-dasharray: none; stroke-dashoffset: 0; stroke-opacity: 1; color-rendering: auto; image-rendering: auto; shape-rendering: auto; text-rendering: auto; stop-color: rgb(0, 0, 0); stop-opacity: 1;"></path>
<path id="path873" d="m 126.37695,9.9667969 a 0.52916503,0.52916503 0 0 0 -0.52929,0.5273441 0.52916503,0.52916503 0 0 0 0.52929,0.529297 h 15.875 a 0.52916503,0.52916503 0 0 0 0.5293,-0.529297 0.52916503,0.52916503 0 0 0 -0.5293,-0.5273441 z" style="color: rgb(0, 0, 0); font: medium sans-serif; font-feature-settings: normal; font-variation-settings: normal; text-indent: 0px; text-align: start; text-decoration: none solid rgb(0, 0, 0); letter-spacing: normal; word-spacing: normal; text-transform: none; writing-mode: lr-tb; direction: ltr; text-orientation: mixed; dominant-baseline: auto; baseline-shift: baseline; text-anchor: start; white-space: normal; shape-margin: 0px; inline-size: 0px; clip-rule: nonzero; display: inline; overflow: visible; visibility: visible; opacity: 1; isolation: auto; mix-blend-mode: normal; color-interpolation: srgb; color-interpolation-filters: linearrgb; vector-effect: none; fill: rgb(255, 158, 36); fill-opacity: 1; fill-rule: evenodd; stroke: none; stroke-width: 1.05835; stroke-linecap: round; stroke-linejoin: round; stroke-miterlimit: 4; stroke-dasharray: none; stroke-dashoffset: 0; stroke-opacity: 1; color-rendering: auto; image-rendering: auto; shape-rendering: auto; text-rendering: auto; stop-color: rgb(0, 0, 0); stop-opacity: 1;"></path>
</g>
<path id="path877" d="m 133.04492,2.8691406 c -1.08967,0 -1.98437,0.8947027 -1.98437,1.984375 0,1.0896723 0.8947,1.9843751 1.98437,1.984375 1.08967,1e-7 1.98438,-0.8947027 1.98438,-1.984375 0,-1.0896723 -0.89471,-1.984375 -1.98438,-1.984375 z m 0,1.0566406 c 0.51771,0 0.92578,0.4100262 0.92578,0.9277344 0,0.5177083 -0.40807,0.9257813 -0.92578,0.9257813 -0.51771,0 -0.92578,-0.408073 -0.92578,-0.9257813 0,-0.5177082 0.40807,-0.9277344 0.92578,-0.9277344 z" style="color: rgb(0, 0, 0); font: medium sans-serif; font-feature-settings: normal; font-variation-settings: normal; text-indent: 0px; text-align: start; text-decoration: none solid rgb(0, 0, 0); letter-spacing: normal; word-spacing: normal; text-transform: none; writing-mode: lr-tb; direction: ltr; text-orientation: mixed; dominant-baseline: auto; baseline-shift: baseline; text-anchor: start; white-space: normal; shape-margin: 0px; inline-size: 0px; clip-rule: nonzero; display: inline; overflow: visible; visibility: visible; opacity: 1; isolation: auto; mix-blend-mode: normal; color-interpolation: srgb; color-interpolation-filters: linearrgb; vector-effect: none; fill: rgb(237, 50, 17); fill-opacity: 1; fill-rule: evenodd; stroke: none; stroke-width: 1.05835; stroke-linecap: butt; stroke-linejoin: round; stroke-miterlimit: 4; stroke-dasharray: none; stroke-dashoffset: 0; stroke-opacity: 1; color-rendering: auto; image-rendering: auto; shape-rendering: auto; text-rendering: auto; stop-color: rgb(0, 0, 0); stop-opacity: 1;"></path>
<path id="path881" d="m 134.22852,0.76953125 a 0.52916503,0.52916503 0 0 0 -0.31446,0.11523437 c -0.89211,0.71380528 -1.1019,1.65950428 -1.24804,2.41992188 a 0.52916503,0.52916503 0 0 0 0.41992,0.6191406 0.52916503,0.52916503 0 0 0 0.61914,-0.4199219 c 0.14343,-0.7463146 0.25409,-1.3008489 0.86914,-1.7929687 a 0.52916503,0.52916503 0 0 0 0.084,-0.7421875 0.52916503,0.52916503 0 0 0 -0.42968,-0.19921875 z" style="color: rgb(0, 0, 0); font: medium sans-serif; font-feature-settings: normal; font-variation-settings: normal; text-indent: 0px; text-align: start; text-decoration: none solid rgb(0, 0, 0); letter-spacing: normal; word-spacing: normal; text-transform: none; writing-mode: lr-tb; direction: ltr; text-orientation: mixed; dominant-baseline: auto; baseline-shift: baseline; text-anchor: start; white-space: normal; shape-margin: 0px; inline-size: 0px; clip-rule: nonzero; display: inline; overflow: visible; visibility: visible; opacity: 1; isolation: auto; mix-blend-mode: normal; color-interpolation: srgb; color-interpolation-filters: linearrgb; vector-effect: none; fill: rgb(74, 60, 36); fill-opacity: 1; fill-rule: evenodd; stroke: none; stroke-width: 1.05835; stroke-linecap: round; stroke-linejoin: round; stroke-miterlimit: 4; stroke-dasharray: none; stroke-dashoffset: 0; stroke-opacity: 1; color-rendering: auto; image-rendering: auto; shape-rendering: auto; text-rendering: auto; stop-color: rgb(0, 0, 0); stop-opacity: 1;"></path>
</g>
</g>
</svg>