<svg width="30" height="30" viewBox="0 0 30 30" fill="none" xmlns="http://www.w3.org/2000/svg">
<path d="M15 27.5C8.09644 27.5 2.5 21.9036 2.5 15C2.5 8.09644 8.09644 2.5 15 2.5C21.9036 2.5 27.5 8.09644 27.5 15C27.4924 21.9004 21.9004 27.4924 15 27.5ZM5 15.215C5.05914 20.7166 9.55138 25.1369 15.0532 25.1075C20.555 25.0778 24.9994 20.6094 24.9994 15.1075C24.9994 9.60563 20.555 5.13722 15.0532 5.1075C9.55138 5.07807 5.05914 9.49845 5 15V15.215ZM12.5 20.625V9.375L20 15L12.5 20.625Z" fill="white"/>
</svg>
