<svg width="35" height="35" viewBox="0 0 35 35" fill="none" xmlns="http://www.w3.org/2000/svg">
<path d="M25.5209 32.0833C23.9429 32.1016 22.4472 31.3805 21.4787 30.1346C20.5102 28.8887 20.1804 27.2614 20.5873 25.7367L11.4581 20.5187C9.88064 21.964 7.56831 22.2699 5.66927 21.2845C3.77024 20.2991 2.689 18.2324 2.96243 16.1105C3.23586 13.9886 4.80571 12.2635 6.89251 11.7917C8.97931 11.3199 11.1386 12.202 12.2981 14L20.5859 9.26186C20.4786 8.85672 20.4218 8.43988 20.4167 8.02082C20.3958 5.58061 22.0906 3.46082 24.4755 2.9441C26.8605 2.42739 29.2806 3.65565 30.2716 5.8857C31.2625 8.11574 30.5521 10.7351 28.5702 12.1589C26.5883 13.5826 23.8791 13.4197 22.0821 11.7687L13.1119 16.8948C13.103 17.273 13.0502 17.6488 12.9544 18.0148L22.0821 23.2312C23.7625 21.6891 26.2628 21.4511 28.204 22.6484C30.1452 23.8457 31.0547 26.1869 30.4308 28.3806C29.8069 30.5744 27.8016 32.0867 25.5209 32.0833ZM25.5209 24.7917C24.3127 24.7917 23.3334 25.771 23.3334 26.9792C23.3334 28.1873 24.3127 29.1667 25.5209 29.1667C26.729 29.1667 27.7084 28.1873 27.7084 26.9792C27.7084 25.771 26.729 24.7917 25.5209 24.7917ZM8.02085 14.5833C6.81273 14.5833 5.83335 15.5627 5.83335 16.7708C5.83335 17.9789 6.81273 18.9583 8.02085 18.9583C9.22898 18.9583 10.2084 17.9789 10.2084 16.7708C10.2084 15.5627 9.22898 14.5833 8.02085 14.5833ZM25.5209 5.83332C24.3127 5.83332 23.3334 6.8127 23.3334 8.02082C23.3334 9.22894 24.3127 10.2083 25.5209 10.2083C26.729 10.2083 27.7084 9.22894 27.7084 8.02082C27.7084 6.8127 26.729 5.83332 25.5209 5.83332Z" fill="#18B48C"/>
</svg>
